<mxfile host="app.diagrams.net" modified="2023-12-10T06:09:41.183Z" agent="Mozilla/5.0 (Windows NT 10.0; Win64; x64) AppleWebKit/537.36 (KHTML, like Gecko) Chrome/119.0.0.0 Safari/537.36 Edg/119.0.0.0" version="22.1.7" etag="L7Uvi49dDEm5z4jPRGOy" type="github">
  <diagram name="Page-1" id="A6IILIkNxFciTBIYDG4_">
    <mxGraphModel>
      <root>
        <mxCell id="0" />
        <mxCell id="1" parent="0" />
      </root>
    </mxGraphModel>
  </diagram>
</mxfile>
